<?xml version="1.0"?>
<svg xmlns="http://www.w3.org/2000/svg" xmlns:xlink="http://www.w3.org/1999/xlink" xmlns:svgjs="http://svgjs.com/svgjs" version="1.1" width="512" height="512" x="0" y="0" viewBox="0 0 74 74" style="enable-background:new 0 0 512 512" xml:space="preserve" class=""><g><path xmlns="http://www.w3.org/2000/svg" d="m35.03 70.67h2.97v2h-2.97z" fill="#8b949e" data-original="#000000" style="" class=""/><path xmlns="http://www.w3.org/2000/svg" d="m69.01 72.67h-24.01v-2h24.01a.99.99 0 0 0 1-1v-64a1 1 0 0 0 -1-1h-64a1 1 0 0 0 -1 1v64a1 1 0 0 0 1 1h13.12v2h-13.12a3 3 0 0 1 -3-3v-64a3 3 0 0 1 3-3h64a3 3 0 0 1 3 3v64a3 3 0 0 1 -3 3z" fill="#8b949e" data-original="#000000" style="" class=""/><path xmlns="http://www.w3.org/2000/svg" d="m25.13 70.67h2.9v2h-2.9z" fill="#8b949e" data-original="#000000" style="" class=""/><path xmlns="http://www.w3.org/2000/svg" d="m3.01 20.25h68v2h-68z" fill="#8b949e" data-original="#000000" style="" class=""/><path xmlns="http://www.w3.org/2000/svg" d="m62.276 16.409a3.735 3.735 0 1 1 3.735-3.735 3.739 3.739 0 0 1 -3.735 3.735zm0-5.469a1.735 1.735 0 1 0 1.735 1.734 1.736 1.736 0 0 0 -1.735-1.734z" fill="#8b949e" data-original="#000000" style="" class=""/><path xmlns="http://www.w3.org/2000/svg" d="m51.339 16.409a3.735 3.735 0 1 1 3.734-3.735 3.74 3.74 0 0 1 -3.734 3.735zm0-5.469a1.735 1.735 0 1 0 1.734 1.734 1.736 1.736 0 0 0 -1.734-1.734z" fill="#8b949e" data-original="#000000" style="" class=""/><path xmlns="http://www.w3.org/2000/svg" d="m40.4 16.409a3.735 3.735 0 1 1 3.734-3.735 3.739 3.739 0 0 1 -3.734 3.735zm0-5.469a1.735 1.735 0 1 0 1.734 1.734 1.735 1.735 0 0 0 -1.734-1.734z" fill="#8b949e" data-original="#000000" style="" class=""/><path xmlns="http://www.w3.org/2000/svg" d="m60.5 61.669h-11v-18.414h11zm-9-2h7v-14.414h-7z" fill="#8b949e" data-original="#000000" style="" class=""/><path xmlns="http://www.w3.org/2000/svg" d="m51.5 61.669h-11v-30.414h11zm-9-2h7v-26.414h-7z" fill="#8b949e" data-original="#000000" style="" class=""/><path xmlns="http://www.w3.org/2000/svg" d="m42.5 61.669h-11v-22.414h11zm-9-2h7v-18.414h-7z" fill="#8b949e" data-original="#000000" style="" class=""/><path xmlns="http://www.w3.org/2000/svg" d="m33.5 61.669h-11v-30.414h11zm-9-2h7v-26.414h-7z" fill="#8b949e" data-original="#000000" style="" class=""/><path xmlns="http://www.w3.org/2000/svg" d="m24.5 61.669h-11v-13.728h11zm-9-2h7v-9.728h-7z" fill="#8b949e" data-original="#000000" style="" class=""/></g></svg>
