<?xml version="1.0"?>
<svg xmlns="http://www.w3.org/2000/svg" xmlns:xlink="http://www.w3.org/1999/xlink" xmlns:svgjs="http://svgjs.com/svgjs" version="1.1" width="512" height="512" x="0" y="0" viewBox="0 0 420.226 420.226" style="enable-background:new 0 0 512 512" xml:space="preserve" class=""><g transform="matrix(6.123233995736766e-17,-1,1,6.123233995736766e-17,-0.000518798828125,420.22650146484375)">
<g xmlns="http://www.w3.org/2000/svg">
	<path d="M233.665,178.209H409.84c5.721,0,10.386-4.662,10.386-10.389V60.969c0-5.727-4.661-10.389-10.386-10.389H233.665   c-5.724,0-10.384,4.662-10.384,10.389v53.681l-26.331,91.212v-42.317c0-5.727-4.658-10.389-10.385-10.389H10.389   C4.667,153.156,0,157.818,0,163.544V270.39c0,5.729,4.662,10.392,10.389,10.392h176.176c5.72,0,10.385-4.663,10.385-10.392v-44.032   l26.331,75.925v56.973c0,5.729,4.66,10.391,10.384,10.391H409.84c5.721,0,10.386-4.661,10.386-10.391V252.409   c0-5.729-4.661-10.391-10.386-10.391H233.665c-5.724,0-10.384,4.662-10.384,10.391v32.757l-23.684-68.27l23.684-82.036v32.96   C223.281,173.553,227.941,178.209,233.665,178.209z M186.854,270.39c0,0.166-0.128,0.296-0.289,0.296H10.389   c-0.157,0-0.291-0.13-0.291-0.296V163.544c0-0.156,0.128-0.285,0.291-0.285h176.176c0.156,0,0.289,0.128,0.289,0.285V270.39z    M233.371,252.409c0-0.158,0.13-0.284,0.294-0.284H409.84c0.153,0,0.29,0.126,0.29,0.284v106.847c0,0.164-0.126,0.296-0.29,0.296   H233.665c-0.153,0-0.294-0.132-0.294-0.296V252.409z M233.371,60.969c0-0.156,0.13-0.285,0.294-0.285H409.84   c0.153,0,0.29,0.129,0.29,0.285V167.82c0,0.162-0.126,0.291-0.29,0.291H233.665c-0.153,0-0.294-0.128-0.294-0.291V60.969z" fill="#c9d1d9" data-original="#000000" style="" class=""/>
</g>
<g xmlns="http://www.w3.org/2000/svg">
</g>
<g xmlns="http://www.w3.org/2000/svg">
</g>
<g xmlns="http://www.w3.org/2000/svg">
</g>
<g xmlns="http://www.w3.org/2000/svg">
</g>
<g xmlns="http://www.w3.org/2000/svg">
</g>
<g xmlns="http://www.w3.org/2000/svg">
</g>
<g xmlns="http://www.w3.org/2000/svg">
</g>
<g xmlns="http://www.w3.org/2000/svg">
</g>
<g xmlns="http://www.w3.org/2000/svg">
</g>
<g xmlns="http://www.w3.org/2000/svg">
</g>
<g xmlns="http://www.w3.org/2000/svg">
</g>
<g xmlns="http://www.w3.org/2000/svg">
</g>
<g xmlns="http://www.w3.org/2000/svg">
</g>
<g xmlns="http://www.w3.org/2000/svg">
</g>
<g xmlns="http://www.w3.org/2000/svg">
</g>
</g></svg>
