<svg id="_x33_0" enable-background="new 0 0 62 62" height="512" viewBox="0 0 62 62" width="512" xmlns="http://www.w3.org/2000/svg" xmlns:xlink="http://www.w3.org/1999/xlink"><linearGradient id="SVGID_1_" gradientUnits="userSpaceOnUse" x1="31" x2="31" y1="62" y2="0"><stop offset="0" stop-color="#9f2fff"/><stop offset="1" stop-color="#0bb1d3"/></linearGradient><path d="m59 8h-17.517c-3.568-5.015-9.317-8-15.483-8-10.477 0-19 8.523-19 19 0 9.104 6.439 16.725 15 18.568v2.432h-2.169c-3.449 0-6.719 1.606-8.844 4.271-.293-.168-.627-.271-.987-.271h-10v14h10c.474 0 .904-.172 1.247-.449 1.982 1.584 4.421 2.449 6.996 2.449h3.942c.414 1.161 1.514 2 2.816 2h2c1.654 0 3-1.346 3-3v-1h1c1.654 0 3-1.346 3-3 0-.771-.301-1.468-.78-2 .48-.532.78-1.229.78-2s-.301-1.468-.78-2c.48-.532.78-1.229.78-2 0-1.51-1.125-2.751-2.579-2.958.358-.599.578-1.293.578-2.042 0-1.103-.897-2-2-2v-2.426c3.677-.785 7.034-2.647 9.674-5.39l.061.184c.326.977 1.236 1.632 2.265 1.632s1.939-.655 2.265-1.632l1.456-4.368h13.279c1.654 0 3-1.346 3-3v-14c0-1.654-1.346-3-3-3zm-49 48h-8v-10h8zm2-.441v-9.25c1.697-2.659 4.668-4.309 7.831-4.309h10.169c0 1.103-.897 2-2 2h-3.618l-.276.553c-.525 1.051-1.428 1.834-2.543 2.206l-.879.293.633 1.896.683-.228v4.51c-1.057-.971-2.314-1.722-3.684-2.179l-.633 1.896c1.725.576 3.23 1.726 4.238 3.237l.079.119v1.697h-3.757c-2.336 0-4.534-.87-6.243-2.441zm20-4.559c0 .552-.449 1-1 1h-2c-.551 0-1-.448-1-1s.449-1 1-1h2c.551 0 1 .448 1 1zm-5 9h-2c-.551 0-1-.448-1-1v-11.298c.623-.465 1.164-1.033 1.583-1.702h.601c-.112.314-.184.648-.184 1 0 .771.301 1.468.78 2-.48.532-.78 1.229-.78 2s.301 1.468.78 2c-.48.532-.78 1.229-.78 2 0 1.302.839 2.402 2 2.816v1.184c0 .552-.449 1-1 1zm4-4h-2c-.551 0-1-.448-1-1s.449-1 1-1h2c.551 0 1 .448 1 1s-.449 1-1 1zm1-9c0 .552-.449 1-1 1h-2c-.551 0-1-.448-1-1s.449-1 1-1h2c.551 0 1 .448 1 1zm-4-7h-4v-2.107c.658.069 1.324.107 2 .107.673 0 1.34-.039 2-.108zm-2-4c-9.374 0-17-7.626-17-17s7.626-17 17-17c5.025 0 9.741 2.215 12.956 6h-2.779c-2.781-2.575-6.372-4-10.177-4-8.271 0-15 6.729-15 15s6.729 15 15 15c4.717 0 9.142-2.243 11.972-6h.307l.663 1.99c-3.24 3.816-7.918 6.01-12.942 6.01zm-2-8h11.353c-2.433 2.524-5.796 4-9.353 4-7.168 0-13-5.832-13-13s5.832-13 13-13c2.484 0 4.864.703 6.919 2h-8.919c-1.654 0-3 1.346-3 3v14c0 1.654 1.346 3 3 3zm36-3c0 .552-.449 1-1 1h-14.721l-1.912 5.735c-.105.316-.63.316-.735 0l-1.911-5.735h-15.721c-.551 0-1-.448-1-1v-14c0-.552.449-1 1-1h35c.551 0 1 .448 1 1zm-17-13h-4c-1.103 0-2 .897-2 2v8c0 1.103.897 2 2 2h4c1.103 0 2-.897 2-2v-8c0-1.103-.897-2-2-2zm-4 10v-8h4l.001 8zm-6-3h2v2h-2v3h-2v-3h-6.443l3.506-9.352 1.873.703-2.493 6.649h3.557v-5h2zm23 0h2v2h-2v3h-2v-3h-6.443l3.506-9.352 1.873.703-2.493 6.649h3.557v-5h2zm-15 33c-1.654 0-3 1.346-3 3s1.346 3 3 3 3-1.346 3-3-1.346-3-3-3zm0 4c-.551 0-1-.448-1-1s.449-1 1-1 1 .448 1 1-.449 1-1 1zm1-18h-2c-1.103 0-2 .897-2 2v8c0 1.103.897 2 2 2h2c1.103 0 2-.897 2-2v-8c0-1.103-.897-2-2-2zm-2 10v-8h2l.001 8zm9 4c-1.654 0-3 1.346-3 3s1.346 3 3 3 3-1.346 3-3-1.346-3-3-3zm0 4c-.551 0-1-.448-1-1s.449-1 1-1 1 .448 1 1-.449 1-1 1zm1-18h-2c-1.103 0-2 .897-2 2v8c0 1.103.897 2 2 2h2c1.103 0 2-.897 2-2v-8c0-1.103-.897-2-2-2zm-2 10v-8h2l.001 8zm9 4c-1.654 0-3 1.346-3 3s1.346 3 3 3 3-1.346 3-3-1.346-3-3-3zm0 4c-.551 0-1-.448-1-1s.449-1 1-1 1 .448 1 1-.449 1-1 1zm1-18h-2c-1.103 0-2 .897-2 2v8c0 1.103.897 2 2 2h2c1.103 0 2-.897 2-2v-8c0-1.103-.897-2-2-2zm-2 10v-8h2l.001 8z" fill="url(#SVGID_1_)"/></svg>